<svg xmlns="http://www.w3.org/2000/svg" viewBox="9856.031 147.031 38.293 38.291">
  <defs>
    <style>
      .cls-1 {
        fill: #fff;
      }

      .cls-2 {
        fill: #e6e6e6;
      }
    </style>
  </defs>
  <g id="contact-icon-2" transform="translate(9856.029 147.011)">
    <g id="contact-icon-2-2" data-name="contact-icon-2" transform="translate(0.002 2.048)">
      <g id="Group_652" data-name="Group 652" transform="translate(0)">
        <path id="Path_399" data-name="Path 399" class="cls-1" d="M35.45,53.511l-4.739-4.9-.013-.014a3.363,3.363,0,0,0-4.759,0l-2.163,2.163a2.548,2.548,0,0,1-3.606,0h0l-7.524-7.346a2.548,2.548,0,0,1,0-3.606l2.163-2.163a3.369,3.369,0,0,0,0-4.759l-4.759-4.759a3.369,3.369,0,0,0-4.759,0L3.7,29.709l-.144.144a12.129,12.129,0,0,0,0,17.163l13,12.827a12.128,12.128,0,0,0,17.146.017c.026-.024,1.707-1.573,1.732-1.6A3.369,3.369,0,0,0,35.45,53.511ZM6.876,29.709a1.123,1.123,0,0,1,1.586,0l4.759,4.759a1.121,1.121,0,0,1,0,1.586l-.793.793L6.083,30.5ZM18.15,58.256l-13-12.827a9.886,9.886,0,0,1-.619-13.311l6.324,6.324A4.8,4.8,0,0,0,11.06,45l7.525,7.347a4.788,4.788,0,0,0,6.553.207l6.323,6.323A9.862,9.862,0,0,1,18.15,58.256Zm15.72-1.594-.754.695-6.384-6.384.793-.793a1.121,1.121,0,0,1,1.581-.006l4.75,4.915A1.123,1.123,0,0,1,33.87,56.663Z" transform="translate(-0.002 -27.139)"/>
      </g>
    </g>
    <g id="Group_655" data-name="Group 655" transform="translate(18.103 0.02)">
      <g id="Group_654" data-name="Group 654" transform="translate(0 0)">
        <path id="Path_400" data-name="Path 400" class="cls-2" d="M243.143.02a1.122,1.122,0,0,0,0,2.244A16.846,16.846,0,0,1,259.97,19.091a1.122,1.122,0,1,0,2.244,0A19.06,19.06,0,0,0,243.143.02Z" transform="translate(-242.021 -0.02)"/>
      </g>
    </g>
    <g id="Group_657" data-name="Group 657" transform="translate(18.103 4.507)">
      <g id="Group_656" data-name="Group 656">
        <path id="Path_401" data-name="Path 401" class="cls-2" d="M243.143,60.015a1.122,1.122,0,0,0,0,2.244,12.354,12.354,0,0,1,12.34,12.34,1.122,1.122,0,0,0,2.244,0A14.6,14.6,0,0,0,243.143,60.015Z" transform="translate(-242.021 -60.015)"/>
      </g>
    </g>
    <g id="Group_659" data-name="Group 659" transform="translate(18.103 8.994)">
      <g id="Group_658" data-name="Group 658">
        <path id="Path_402" data-name="Path 402" class="cls-2" d="M243.143,120.011a1.122,1.122,0,0,0,0,2.244A7.861,7.861,0,0,1,251,130.107a1.122,1.122,0,1,0,2.244,0A10.108,10.108,0,0,0,243.143,120.011Z" transform="translate(-242.021 -120.011)"/>
      </g>
    </g>
    <g id="Group_661" data-name="Group 661" transform="translate(18.103 13.482)">
      <g id="Group_660" data-name="Group 660">
        <path id="Path_403" data-name="Path 403" class="cls-2" d="M243.143,180.006a1.122,1.122,0,0,0,0,2.244,3.369,3.369,0,0,1,3.365,3.365,1.122,1.122,0,0,0,2.244,0A5.615,5.615,0,0,0,243.143,180.006Z" transform="translate(-242.021 -180.006)"/>
      </g>
    </g>
  </g>
</svg>
