<svg xmlns="http://www.w3.org/2000/svg" viewBox="10093.663 147.031 33.032 37.583">
  <defs>
    <style>
      .cls-1 {
        fill: #e6e6e6;
      }

      .cls-2 {
        fill: #fff;
      }
    </style>
  </defs>
  <g id="contact-icon-3" transform="translate(10062.663 147.031)">
    <g id="Group_663" data-name="Group 663" transform="translate(40.838 5.434)">
      <g id="Group_662" data-name="Group 662">
        <path id="Path_404" data-name="Path 404" class="cls-1" d="M157.678,60a6.677,6.677,0,0,0-3.594,12.3,6.816,6.816,0,0,0,6.641.363.954.954,0,0,0-.8-1.733,4.943,4.943,0,0,1-4.815-.236,4.769,4.769,0,1,1,7.335-4.02.954.954,0,0,1-1.908.015s0-.01,0-.015a2.866,2.866,0,1,0-.954,2.131,2.86,2.86,0,0,0,4.77-2.131A6.686,6.686,0,0,0,157.678,60Zm.941,6.831a.952.952,0,1,1,.007-.262A.955.955,0,0,0,158.619,66.831Z" transform="translate(-151 -60)"/>
      </g>
    </g>
    <g id="Group_665" data-name="Group 665" transform="translate(31)">
      <g id="Group_664" data-name="Group 664">
        <path id="Path_405" data-name="Path 405" class="cls-2" d="M64.032,14.459a1.109,1.109,0,0,0-.322-.777L59.628,9.6V1.1a1.1,1.1,0,0,0-1.1-1.1H36.505a1.1,1.1,0,0,0-1.1,1.1V9.6l-4.082,4.082-.011.012a1.106,1.106,0,0,0-.312.765V34.28a3.307,3.307,0,0,0,3.3,3.3H60.729a3.307,3.307,0,0,0,3.3-3.3V14.459Zm-4.4-1.744,1.746,1.746-1.746,1.746ZM37.606,10.057h0V2.2H57.426v7.854h0v8.352L51.464,24.37h-7.9l-5.961-5.961Zm-2.2,2.658v3.492l-1.746-1.746ZM33.2,33.824V17.119l8.353,8.353Zm1.557,1.557,8.808-8.809h7.9l8.809,8.809ZM61.83,33.824l-8.353-8.353,8.353-8.353Z" transform="translate(-31)"/>
      </g>
    </g>
  </g>
</svg>
