<svg xmlns="http://www.w3.org/2000/svg" viewBox="56 460 40 40">
  <defs>
    <style>
      .cls-1 {
        fill: #bcd531;
      }

      .cls-2 {
        fill: #fff;
      }
    </style>
  </defs>
  <g id="Symbol_5_1" data-name="Symbol 5 – 1" transform="translate(0 -27)">
    <circle id="Ellipse_17" data-name="Ellipse 17" class="cls-1" cx="20" cy="20" r="20" transform="translate(56 487)"/>
    <path id="Path_49" data-name="Path 49" class="cls-2" d="M4.627,8.88c1.118,1.112,2.2,2.193,3.28,3.267.792.792,1.6,1.571,2.369,2.381a1.9,1.9,0,0,1-.9,3.185,1.848,1.848,0,0,1-1.866-.534c-1.118-1.118-2.237-2.23-3.355-3.349Q2.412,12.088.675,10.344A2,2,0,0,1,.656,7.429Q4.068,4,7.492.587a1.91,1.91,0,0,1,3.267.854,1.873,1.873,0,0,1-.553,1.86C8.906,4.589,7.618,5.89,6.317,7.184,5.764,7.743,5.211,8.3,4.627,8.88Z" transform="translate(69.959 497.667)"/>
  </g>
</svg>
